<?xml version="1.0" encoding="utf-8"?>
<!-- Generator: Adobe Illustrator 16.0.0, SVG Export Plug-In . SVG Version: 6.00 Build 0)  -->
<!DOCTYPE svg PUBLIC "-//W3C//DTD SVG 1.0//EN" "http://www.w3.org/TR/2001/REC-SVG-20010904/DTD/svg10.dtd">
<svg version="1.0" id="Layer_1" xmlns="http://www.w3.org/2000/svg" xmlns:xlink="http://www.w3.org/1999/xlink" x="0px" y="0px"
	 width="100px" height="100px" viewBox="0 0 100 100" enable-background="new 0 0 100 100" xml:space="preserve">
<circle cx="50" cy="66.667" r="10"/>
<circle cx="26.667" cy="20" r="10"/>
<path d="M33.333,33.333H20c-5.521,0-10,4.479-10,10h33.333C43.333,37.813,38.854,33.333,33.333,33.333z"/>
<path d="M80,33.333H66.667c-5.521,0-10,4.479-10,10H90C90,37.813,85.521,33.333,80,33.333z"/>
<path d="M56.667,80H43.333c-5.521,0-10,4.479-10,10h33.333C66.667,84.479,62.188,80,56.667,80z"/>
<circle cx="73.333" cy="20" r="10"/>
<polygon points="26.667,70 26.667,60 30,60 23.33,50 16.667,60 20,60 20,76.667 33.333,76.667 33.333,70 "/>
<polygon points="73.333,70 73.333,60 70,60 76.67,50 83.333,60 80,60 80,76.667 66.667,76.667 66.667,70 "/>
</svg>
