<?xml version="1.0" encoding="utf-8"?>
<!-- Generator: Adobe Illustrator 16.0.0, SVG Export Plug-In . SVG Version: 6.00 Build 0)  -->
<!DOCTYPE svg PUBLIC "-//W3C//DTD SVG 1.0//EN" "http://www.w3.org/TR/2001/REC-SVG-20010904/DTD/svg10.dtd">
<svg version="1.0" id="Layer_1" xmlns="http://www.w3.org/2000/svg" xmlns:xlink="http://www.w3.org/1999/xlink" x="0px" y="0px"
	 width="100px" height="100px" viewBox="0 0 100 100" enable-background="new 0 0 100 100" xml:space="preserve">
<path d="M10,10v60h6.667c0-3.682,2.985-6.667,6.667-6.667h13.333c3.682,0,6.667,2.985,6.667,6.667H90V10H10z M20,20h6.667v6.667H20
	V20z M30,56.667c-5.524,0-10-4.477-10-10s4.476-10,10-10s10,4.476,10,10S35.524,56.667,30,56.667z M33.333,26.667V20h13.333v6.667
	H33.333z M53.333,60h-6.667V40h6.667V60z M66.667,60H60V33.333h6.667V60z M80,60h-6.667V26.667H80V60z"/>
<polygon points="43.333,90 46.667,76.667 13.333,76.667 16.667,90 "/>
</svg>
