<?xml version="1.0" encoding="utf-8"?>
<!-- Generator: Adobe Illustrator 16.0.0, SVG Export Plug-In . SVG Version: 6.00 Build 0)  -->
<!DOCTYPE svg PUBLIC "-//W3C//DTD SVG 1.0//EN" "http://www.w3.org/TR/2001/REC-SVG-20010904/DTD/svg10.dtd">
<svg version="1.0" id="Layer_1" xmlns="http://www.w3.org/2000/svg" xmlns:xlink="http://www.w3.org/1999/xlink" x="0px" y="0px"
	 width="100px" height="100px" viewBox="0 0 100 100" enable-background="new 0 0 100 100" xml:space="preserve">
<path d="M60,20c0,5.524-4.473,10-10,10c-5.521,0-10-4.476-10-10s4.479-10,10-10C55.527,10,60,14.476,60,20z"/>
<path d="M33.333,33.333c0,5.524-4.473,10-10,10c-5.521,0-10-4.476-10-10c0-5.524,4.479-10,10-10
	C28.861,23.333,33.333,27.809,33.333,33.333z"/>
<path d="M36.667,40c0-3.682,2.988-6.667,6.667-6.667h13.333c3.685,0,6.666,2.985,6.666,6.667H36.667z"/>
<path d="M66.667,46.667H33.333L23.333,90h13.333c0-3.682,2.988-6.667,6.667-6.667h13.333c3.685,0,6.666,2.985,6.666,6.667h13.334
	L66.667,46.667z M50,80c-5.521,0-10-4.476-10-10s4.479-10,10-10c5.527,0,10,4.476,10,10S55.527,80,50,80z"/>
<path d="M66.667,33.333c0,5.524,4.479,10,10,10c5.527,0,10-4.476,10-10c0-5.524-4.473-10-10-10
	C71.146,23.333,66.667,27.809,66.667,33.333z"/>
<path d="M26.491,46.667h-9.824c-3.678,0-6.667,2.985-6.667,6.667v13.334h11.875L26.491,46.667z"/>
<path d="M73.509,46.667h9.824c3.679,0,6.667,2.985,6.667,6.667v13.334H78.125L73.509,46.667z"/>
</svg>
