<?xml version="1.0" encoding="utf-8"?>
<!-- Generator: Adobe Illustrator 16.0.0, SVG Export Plug-In . SVG Version: 6.00 Build 0)  -->
<!DOCTYPE svg PUBLIC "-//W3C//DTD SVG 1.0//EN" "http://www.w3.org/TR/2001/REC-SVG-20010904/DTD/svg10.dtd">
<svg version="1.0" id="Layer_1" xmlns="http://www.w3.org/2000/svg" xmlns:xlink="http://www.w3.org/1999/xlink" x="0px" y="0px"
	 width="100px" height="100px" viewBox="0 0 100 100" enable-background="new 0 0 100 100" xml:space="preserve">
<path d="M50,58.333c-5.521,0-10,4.479-10,10c0,5.521,4.479,10,10,10c5.521,0,10-4.479,10-10C60,62.813,55.521,58.333,50,58.333z"/>
<path d="M56.667,83.333H43.333c-3.682,0-6.667,2.985-6.667,6.667h26.667C63.333,86.318,60.352,83.333,56.667,83.333z"/>
<path d="M80,58.333c-5.521,0-10,4.479-10,10c0,5.521,4.479,10,10,10s10-4.479,10-10C90,62.813,85.521,58.333,80,58.333z"/>
<path d="M90,83.333H73.333c-3.682,0-6.666,2.985-6.666,6.667H90V83.333z"/>
<path d="M10,68.333c0,5.521,4.479,10,10,10s10-4.479,10-10c0-5.521-4.479-10-10-10S10,62.813,10,68.333z"/>
<path d="M10,83.333h16.667c3.682,0,6.667,2.985,6.667,6.667H10V83.333z"/>
<path d="M30,10c-5.521,0-10,4.479-10,10s4.479,10,10,10s10-4.479,10-10S35.521,10,30,10z"/>
<path d="M56.667,46.667v-5c0-5.514-2.246-10.514-5.866-14.134l-4.713,4.707C48.503,34.655,50,37.988,50,41.667v5h-6.667v-5
	c0-3.685-2.988-6.667-6.667-6.667H23.333c-3.685,0-6.667,2.982-6.667,6.667v5H10v6.667h53.333v-6.667H56.667z"/>
<path d="M60,16.667v10c0,3.666,3.001,6.667,6.667,6.667V40l10-6.667h6.666c3.666,0,6.667-3.001,6.667-6.667v-10
	C90,13.001,86.999,10,83.333,10H66.667C63.001,10,60,13.001,60,16.667z"/>
</svg>
