<?xml version="1.0" encoding="utf-8"?>
<!-- Generator: Adobe Illustrator 16.0.0, SVG Export Plug-In . SVG Version: 6.00 Build 0)  -->
<!DOCTYPE svg PUBLIC "-//W3C//DTD SVG 1.0//EN" "http://www.w3.org/TR/2001/REC-SVG-20010904/DTD/svg10.dtd">
<svg version="1.0" id="Layer_1" xmlns="http://www.w3.org/2000/svg" xmlns:xlink="http://www.w3.org/1999/xlink" x="0px" y="0px"
	 width="100px" height="100px" viewBox="0 0 100 100" enable-background="new 0 0 100 100" xml:space="preserve">
<path d="M50,58.333c-5.521,0-10,4.479-10,10c0,5.521,4.479,10,10,10c5.521,0,10-4.479,10-10C60,62.813,55.521,58.333,50,58.333z"/>
<path d="M56.667,83.333H43.333c-3.682,0-6.667,2.985-6.667,6.667h26.667C63.333,86.318,60.352,83.333,56.667,83.333z"/>
<path d="M80,58.333c-5.521,0-10,4.479-10,10c0,5.521,4.479,10,10,10s10-4.479,10-10C90,62.813,85.521,58.333,80,58.333z"/>
<path d="M90,83.333H73.333c-3.682,0-6.666,2.985-6.666,6.667H90V83.333z"/>
<path d="M20,10c-5.521,0-10,4.479-10,10s4.479,10,10,10c5.522,0,10-4.479,10-10S25.522,10,20,10z"/>
<path d="M36.667,10v18.75c2.617-1,5.033-2.568,7.079-4.684l4.793,4.632c-4.967,5.14-11.551,7.969-18.54,7.969H10V90h6.668V70h6.665
	v20H30V43.333c2.284,0,4.513-0.241,6.667-0.7v10.7H90V10H36.667z"/>
</svg>
