<?xml version="1.0" encoding="utf-8"?>
<!-- Generator: Adobe Illustrator 16.0.0, SVG Export Plug-In . SVG Version: 6.00 Build 0)  -->
<!DOCTYPE svg PUBLIC "-//W3C//DTD SVG 1.0//EN" "http://www.w3.org/TR/2001/REC-SVG-20010904/DTD/svg10.dtd">
<svg version="1.0" id="Layer_1" xmlns="http://www.w3.org/2000/svg" xmlns:xlink="http://www.w3.org/1999/xlink" x="0px" y="0px"
	 width="100px" height="100px" viewBox="0 0 100 100" enable-background="new 0 0 100 100" xml:space="preserve">
<path d="M50,58.333c-5.521,0-10,4.479-10,10c0,5.521,4.479,10,10,10c5.521,0,10-4.479,10-10C60,62.813,55.521,58.333,50,58.333z"/>
<path d="M56.667,83.333H43.333c-3.682,0-6.667,2.985-6.667,6.667h26.667C63.333,86.318,60.352,83.333,56.667,83.333z"/>
<path d="M80,58.333c-5.521,0-10,4.479-10,10c0,5.521,4.479,10,10,10s10-4.479,10-10C90,62.813,85.521,58.333,80,58.333z"/>
<path d="M90,83.333H73.333c-3.682,0-6.666,2.985-6.666,6.667H90V83.333z"/>
<path d="M10,68.333c0,5.521,4.479,10,10,10s10-4.479,10-10c0-5.521-4.479-10-10-10S10,62.813,10,68.333z"/>
<path d="M10,83.333h16.667c3.682,0,6.667,2.985,6.667,6.667H10V83.333z"/>
<path d="M70,10c-5.521,0-10,4.479-10,10s4.479,10,10,10s10-4.479,10-10S75.521,10,70,10z"/>
<path d="M83.333,46.667v-5c0-3.685-2.988-6.667-6.666-6.667H63.333c-3.685,0-6.666,2.982-6.666,6.667v5H50v6.667h40v-6.667H83.333z"
	/>
<path d="M55,20c0-3.854,1.504-7.34,3.899-10H16.667C12.998,10,10,13.001,10,16.667v30c0,3.666,2.998,6.667,6.667,6.667H45V41.667
	h6.667c0-5.088,3.294-9.378,7.845-10.97C56.735,27.972,55,24.189,55,20z M20,20h13.333v6.667H20V20z M40,40H20v-6.667h20V40z
	 M46.667,26.667H40V20h6.667V26.667z"/>
</svg>
