<?xml version="1.0" encoding="utf-8"?>
<!-- Generator: Adobe Illustrator 16.0.0, SVG Export Plug-In . SVG Version: 6.00 Build 0)  -->
<!DOCTYPE svg PUBLIC "-//W3C//DTD SVG 1.0//EN" "http://www.w3.org/TR/2001/REC-SVG-20010904/DTD/svg10.dtd">
<svg version="1.0" id="Layer_1" xmlns="http://www.w3.org/2000/svg" xmlns:xlink="http://www.w3.org/1999/xlink" x="0px" y="0px"
	 width="100px" height="100px" viewBox="0 0 100 100" enable-background="new 0 0 100 100" xml:space="preserve">
<path d="M53.333,10C34.925,10,20,24.925,20,43.333l-6.504,16.835c-0.581,1.738,0.446,3.164,2.279,3.164H20v13.334
	c0,3.678,2.985,6.666,6.667,6.666H40V90h33.333V69.954c8.083-6.08,13.334-15.729,13.334-26.621C86.667,24.925,71.741,10,53.333,10z
	 M39.192,57.478c-3.62-3.617-5.859-8.617-5.859-14.144c0-11.048,8.952-20,20-20c2.676,0,5.225,0.534,7.556,1.487l-6.761,5.257
	C53.86,30.065,53.606,30,53.333,30C45.97,30,40,35.97,40,43.333c0,3.685,1.493,7.018,3.906,9.43L39.192,57.478z M50.977,45.69
	c-1.302-1.302-1.302-3.411,0-4.713L66.885,28.6l1.179,1.179L55.69,45.69C54.388,46.992,52.278,46.992,50.977,45.69z M67.478,57.478
	l-4.714-4.717c2.412-2.412,3.903-5.746,3.903-9.427c0-0.273-0.065-0.527-0.082-0.794l5.261-6.764
	c0.954,2.331,1.487,4.883,1.487,7.559C73.333,48.857,71.097,53.857,67.478,57.478z"/>
</svg>
