<?xml version="1.0" encoding="utf-8"?>
<!-- Generator: Adobe Illustrator 16.0.0, SVG Export Plug-In . SVG Version: 6.00 Build 0)  -->
<!DOCTYPE svg PUBLIC "-//W3C//DTD SVG 1.0//EN" "http://www.w3.org/TR/2001/REC-SVG-20010904/DTD/svg10.dtd">
<svg version="1.0" id="Layer_1" xmlns="http://www.w3.org/2000/svg" xmlns:xlink="http://www.w3.org/1999/xlink" x="0px" y="0px"
	 width="100px" height="100px" viewBox="0 0 100 100" enable-background="new 0 0 100 100" xml:space="preserve">
<path d="M66.667,10c-12.885,0-23.334,10.449-23.334,23.334h21.953L60,28.047l4.717-4.713L75.69,34.311
	c1.302,1.299,1.302,3.41,0,4.713L64.717,50l-4.714-4.713L65.286,40H41.924l-4.997,12.061l-0.006-0.003
	c-0.163,0.394-0.254,0.823-0.254,1.275c0,1.836,1.49,3.334,3.333,3.334h3.333v6.666c0,5.521,4.479,10,10,10h3.334V90H90V33.334
	C90,20.449,79.558,10,66.667,10z"/>
<path d="M36.667,63.333v-0.569C32.786,61.387,30,57.679,30,53.333c0-1.318,0.257-2.604,0.762-3.821l2.728-6.607l0.014,0.006
	L34.707,40H23.333v-6.666h13.334c0-8.881,3.899-16.846,10.052-22.342C44.59,10.352,42.337,10,40,10
	c-12.884,0-23.333,10.449-23.333,23.334v3.258L10.26,52.061l-0.006-0.003C10.092,52.451,10,52.881,10,53.333
	c0,1.836,1.49,3.334,3.333,3.334h3.334v6.666c0,5.521,4.479,10,10,10H30V90h20V79.665C42.402,78.115,36.667,71.384,36.667,63.333z"
	/>
</svg>
