<?xml version="1.0" encoding="utf-8"?>
<!-- Generator: Adobe Illustrator 16.0.0, SVG Export Plug-In . SVG Version: 6.00 Build 0)  -->
<!DOCTYPE svg PUBLIC "-//W3C//DTD SVG 1.0//EN" "http://www.w3.org/TR/2001/REC-SVG-20010904/DTD/svg10.dtd">
<svg version="1.0" id="Layer_1" xmlns="http://www.w3.org/2000/svg" xmlns:xlink="http://www.w3.org/1999/xlink" x="0px" y="0px"
	 width="100px" height="100px" viewBox="0 0 100 100" enable-background="new 0 0 100 100" xml:space="preserve">
<path d="M53.333,56.667h-6.667c-1.842,0-3.333-1.491-3.333-3.334H43.33h0.003c0-1.842,1.491-3.333,3.333-3.333v-0.003V50h6.667
	c1.843,0,3.334,1.491,3.334,3.333h6.666c0-5.521-4.479-10-10-10v-6.667h-6.667v6.667l0,0c-5.521,0-10,4.476-10,10l0,0
	c0,5.521,4.479,10,10,10h6.667c1.843,0,3.334,1.491,3.334,3.334H56.66c0,1.842-1.491,3.333-3.333,3.333h-6.661
	c-1.842,0-3.333-1.491-3.333-3.333h-6.667c0,5.521,4.479,10,10,10v6.666h6.667v-6.666c5.521-0.007,9.997-4.479,9.997-10h0.003
	C63.333,61.146,58.854,56.667,53.333,56.667z"/>
<path d="M15,28.333c-1.763,0-3.429,0.358-5,0.918v28.164c1.571,0.557,3.237,0.918,5,0.918c8.285,0,15-6.715,15-15
	S23.285,28.333,15,28.333z"/>
<polygon points="10,90 33.333,90 26.667,63.333 10,63.333 "/>
<path d="M85,28.333c1.765,0,3.431,0.358,5,0.918v28.164c-1.569,0.557-3.235,0.918-5,0.918c-8.284,0-15-6.715-15-15
	S76.716,28.333,85,28.333z"/>
<polygon points="90,90 66.667,90 73.333,63.333 90,63.333 "/>
<path d="M61.377,10l-4.714,4.713l5.248,5.244V20H30v6.667h31.95l-5.28,5.29l4.707,4.71L72.354,25.69
	c1.302-1.299,1.309-3.411,0-4.713L61.377,10z"/>
</svg>
