<?xml version="1.0" encoding="utf-8"?>
<!-- Generator: Adobe Illustrator 16.0.0, SVG Export Plug-In . SVG Version: 6.00 Build 0)  -->
<!DOCTYPE svg PUBLIC "-//W3C//DTD SVG 1.0//EN" "http://www.w3.org/TR/2001/REC-SVG-20010904/DTD/svg10.dtd">
<svg version="1.0" id="Layer_1" xmlns="http://www.w3.org/2000/svg" xmlns:xlink="http://www.w3.org/1999/xlink" x="0px" y="0px"
	 width="100px" height="100px" viewBox="0 0 100 100" enable-background="new 0 0 100 100" xml:space="preserve">
<circle cx="30" cy="25" r="11.667"/>
<circle cx="70" cy="48.333" r="11.667"/>
<path d="M84.388,69.831c-0.579-1.742-2.555-3.164-4.388-3.164H60c-1.208,0-2.441,0.647-3.333,1.568V56.667H47.78l-3.392-10.17
	c-0.581-1.741-2.556-3.164-4.388-3.164H20c-1.833,0-3.807,1.423-4.388,3.164L10,63.333h7.028L21.471,50h17.058l2.222,6.667H26.667
	v16.666h-10V80H52.22L50,86.667h7.028l4.443-13.334h17.057l4.443,13.334H90L84.388,69.831z"/>
</svg>
