<?xml version="1.0" encoding="utf-8"?>
<!-- Generator: Adobe Illustrator 16.0.0, SVG Export Plug-In . SVG Version: 6.00 Build 0)  -->
<!DOCTYPE svg PUBLIC "-//W3C//DTD SVG 1.0//EN" "http://www.w3.org/TR/2001/REC-SVG-20010904/DTD/svg10.dtd">
<svg version="1.0" id="Layer_1" xmlns="http://www.w3.org/2000/svg" xmlns:xlink="http://www.w3.org/1999/xlink" x="0px" y="0px"
	 width="100px" height="100px" viewBox="0 0 100 100" enable-background="new 0 0 100 100" xml:space="preserve">
<path d="M33.333,33.333c-5.523,0-10,4.476-10,10s4.477,10,10,10c5.524,0,10-4.476,10-10S38.857,33.333,33.333,33.333z"/>
<path d="M10,53.333V20c0-3.666,3.001-6.667,6.667-6.667h66.666C86.999,13.333,90,16.334,90,20v40c0,3.665-3.001,6.667-6.667,6.667
	h-20h-3.311c0.059-1.693,0.727-3.275,1.931-4.479l17.474-17.474L65.286,30.572L50,45.866v-2.533c0-9.189-7.478-16.667-16.667-16.667
	s-16.666,7.478-16.666,16.667v10H10z"/>
<path d="M10,86.667V73.333C10,65.97,15.97,60,23.333,60h18.62c1.833,0,4.395-1.062,5.69-2.356L65.286,40L70,44.714l-12.761,12.76
	c-2.412,2.412-3.906,5.746-3.906,9.428v19.766H10z"/>
</svg>
