<?xml version="1.0" encoding="utf-8"?>
<!-- Generator: Adobe Illustrator 16.0.0, SVG Export Plug-In . SVG Version: 6.00 Build 0)  -->
<!DOCTYPE svg PUBLIC "-//W3C//DTD SVG 1.0//EN" "http://www.w3.org/TR/2001/REC-SVG-20010904/DTD/svg10.dtd">
<svg version="1.0" id="Layer_1" xmlns="http://www.w3.org/2000/svg" xmlns:xlink="http://www.w3.org/1999/xlink" x="0px" y="0px"
	 width="100px" height="100px" viewBox="0 0 100 100" enable-background="new 0 0 100 100" xml:space="preserve">
<path d="M20,50c-5.522,0-10,4.479-10,10s4.478,10,10,10c5.524,0,10-4.479,10-10S25.524,50,20,50z"/>
<polygon points="43.333,56.667 30,76.667 10,76.667 10,90 33.333,90 33.333,83.333 48.88,60.364 "/>
<path d="M66.667,23.333c-4.346,0-8.008,2.793-9.389,6.667H43.333v-6.667h-6.667V30H30v6.667h27.278
	c0.117,0.326,0.241,0.645,0.388,0.954l-5.713,5.713H40V50h14.714l7.666-7.666c0.309,0.146,0.628,0.27,0.953,0.387v13.946H70V42.721
	c3.874-1.38,6.667-5.039,6.667-9.388C76.667,27.809,72.188,23.333,66.667,23.333z"/>
<polygon points="16.667,10 16.667,43.333 23.333,43.333 23.333,16.667 83.333,16.667 83.333,63.333 54.922,63.333 50.41,70 90,70 
	90,10 "/>
</svg>
