<?xml version="1.0" encoding="utf-8"?>
<!-- Generator: Adobe Illustrator 16.0.0, SVG Export Plug-In . SVG Version: 6.00 Build 0)  -->
<!DOCTYPE svg PUBLIC "-//W3C//DTD SVG 1.0//EN" "http://www.w3.org/TR/2001/REC-SVG-20010904/DTD/svg10.dtd">
<svg version="1.0" id="Layer_1" xmlns="http://www.w3.org/2000/svg" xmlns:xlink="http://www.w3.org/1999/xlink" x="0px" y="0px"
	 width="100px" height="100px" viewBox="0 0 100 100" enable-background="new 0 0 100 100" xml:space="preserve">
<path d="M22,51c-5.524,0-10,4.476-10,10s4.476,10,10,10s10-4.476,10-10S27.524,51,22,51z"/>
<polygon points="45.336,57.663 32,77.663 12,77.663 12,91 35.332,91 35.332,84.337 50.884,61.368 "/>
<polygon points="18.668,11 18.668,44.332 25.332,44.332 25.332,17.668 85.337,17.668 85.337,64.337 56.922,64.337 52.407,71 92,71 
	92,11 "/>
<rect x="32" y="24.332" width="6.668" height="6.668"/>
<rect x="45.336" y="24.332" width="6.664" height="6.668"/>
<rect x="32" y="37.668" width="6.668" height="6.663"/>
<rect x="45.336" y="37.668" width="6.664" height="6.663"/>
<rect x="58.663" y="51" width="6.674" height="6.663"/>
<rect x="72" y="51" width="6.663" height="6.663"/>
<path d="M68.663,24.332c-5.514,0-10,4.473-10,10c0,2.762,1.127,5.262,2.93,7.07l7.07,6.262l7.08-6.262
	c1.804-1.808,2.93-4.308,2.92-7.07C78.663,28.813,74.188,24.332,68.663,24.332z M68.663,37.668c-1.836,0-3.326-1.493-3.326-3.337
	c0-1.839,1.49-3.332,3.326-3.332C70.509,31,72,32.493,72,34.332C72,36.176,70.509,37.668,68.663,37.668z"/>
</svg>
